mtllib materials.mtl
v -6.437302E-06 0.004997253 0.0001657009
v 0.08056641 -0.001859784 0.05920815
v -0.0110178 -0.003308535 0.09933615
v -0.09158397 -0.001448631 0.04012799
v -0.08056641 0.001859784 -0.05920815
v 0.0110178 0.003308535 -0.09933615
v 0.09158421 0.001448631 -0.04012799
v 0.1623755 -0.09736216 -0.07440317
v 0.1428566 -0.1032232 0.1015768
v 0.01964712 -0.09406722 -0.1792941
v -0.1426001 -0.09663379 -0.1082048
v -0.1621182 -0.1024948 0.06777513
v -0.01939034 -0.1057898 0.1726661
v 0.0007035732 -0.5471917 -0.01814663
vn 0.02185964 0.9960682 0.08584996
vn -0.03542844 0.9962051 0.0795005
vn -0.05857279 0.997925 0.02674028
vn -0.02442905 0.999508 -0.01967046
vn 0.03285904 0.9993712 -0.01332101
vn 0.05600337 0.9976513 0.03943922
vn 0 0 0
vn 0.8256456 0.5533606 0.1100061
vn 0.4917965 0.578171 -0.6510411
vn -0.3345634 0.5801456 -0.7426295
vn -0.8270739 0.5573103 -0.07317092
vn -0.4932265 0.5325003 0.6878744
vn 0.3331338 0.5305252 0.7794645
vn 0.9406093 -0.3263735 0.09345789
vn 0.5607727 -0.2981467 -0.7724264
vn -0.3794192 -0.2959 -0.8766323
vn -0.9397761 -0.3218803 -0.1149519
vn -0.5599403 -0.350107 0.7509275
vn 0.3802547 -0.3523535 0.8551336
vt -0.01671841 -0.2612067
vt -0.02524138 -0.2559522
vt -0.02553721 -0.2659479
vt -0.02474541 -0.2514173
vt -0.03361844 -0.2560562
vt -0.02517893 -0.2614204
vt -0.04158992 -0.250051
vt -0.04225165 -0.2600416
vt -0.0332767 -0.2556314
vt -0.05110677 -0.2582683
vt -0.04287085 -0.2639621
vt -0.04205165 -0.2539957
vt -0.0436405 -0.267819
vt -0.0346374 -0.2634378
vt -0.04291872 -0.2578325
vt -0.02602877 -0.2694072
vt -0.02560451 -0.2594036
vt -0.03447218 -0.2640258
vt 0 0
vt 0.2182977 -0.214425
vt 0.2208136 -0.2047466
vt 0.2101455 -0.1979874
vt 0.2056884 -0.2151331
vt -0.2557265 -0.1505407
vt -0.2541729 -0.1604193
vt -0.2416939 -0.1623619
vt -0.2444464 -0.1448614
vt -0.2413144 -0.1783063
vt -0.2451118 -0.1875573
vt -0.235452 -0.1956927
vt -0.2287247 -0.1793041
vt -0.1378753 -0.04376255
vt -0.1467643 -0.04834346
vt -0.1446847 -0.0608003
vt -0.1289372 -0.05268496
vt 0.1071361 -0.05347798
vt 0.0987481 -0.04803356
vt 0.08896492 -0.05602025
vt 0.1038247 -0.06566539
vt 0.2141818 -0.2076986
vt 0.2108928 -0.1982549
vt 0.1982674 -0.1985669
vt 0.204094 -0.2152969
vt 0.1832161 -0.00216401
vt 0.1681982 0.007233132
vt 0.150613 -0.03756924
vt -0.1376615 0.005588113
vt -0.151632 -0.005305339
vt -0.1155569 -0.03716559
vt -0.2438525 -0.1726525
vt -0.2506217 -0.1890239
vt -0.2035191 -0.1989149
vt -0.2667113 -0.06171271
vt -0.2720162 -0.07861538
vt -0.2242268 -0.08433034
vt 0.2669824 -0.05013439
vt 0.2620252 -0.0331265
vt 0.2190859 -0.05486818
vt 0.2677728 -0.1760997
vt 0.2605057 -0.1599432
vt 0.220995 -0.1874277
o group897219909
g mesh897219909
usemtl mat21
f 3/3/1 2/2/1 1/1/1
f 4/6/2 3/5/2 1/4/2
f 5/9/3 4/8/3 1/7/3
f 6/12/4 5/11/4 1/10/4
f 7/15/5 6/14/5 1/13/5
f 2/18/6 7/17/6 1/16/6
f 1/19/7
f 9/23/8 8/22/8 7/21/8 2/20/8
f 8/27/9 10/26/9 6/25/9 7/24/9
f 10/31/10 11/30/10 5/29/10 6/28/10
f 11/35/11 12/34/11 4/33/11 5/32/11
f 12/39/12 13/38/12 3/37/12 4/36/12
f 13/43/13 9/42/13 2/41/13 3/40/13
f 14/46/14 8/45/14 9/44/14
f 14/49/15 10/48/15 8/47/15
f 14/52/16 11/51/16 10/50/16
f 14/55/17 12/54/17 11/53/17
f 14/58/18 13/57/18 12/56/18
f 14/61/19 9/60/19 13/59/19
